<svg xmlns="http://www.w3.org/2000/svg" viewBox="0 0 365 243.24"><defs><style>.cls-1{fill:#0f0c0c;}</style></defs><g id="Layer_2" data-name="Layer 2"><g id="Layer_1-2" data-name="Layer 1"><path class="cls-1" d="M83.69,10.34a4.76,4.76,0,0,0-3.38-4.86A33,33,0,0,0,74,4.09c-3.13-.53-2.52-3.57.25-3.57,1.83,0,10.53.7,20.87.7,6,0,14.6-.26,18.77-.53,2.61-.17,2.87,2.61,1,3.14s-10.43,2.6-25.81,16.68C73.18,35.12,52.67,56.75,52.67,56.75s46.06,54.94,54.14,61.45c8.35,6.78,14.08,7.3,20.34,7.81,1.56.09,2.07,3.14,0,3.14h-36S46.59,75.27,39.28,70.31c-1.31-.78-4.43-1.83-4.69,1.83-.27,3.38-.52,32,.26,38.24s3.39,15.38,18.25,15.38c1.82,0,2.87,3.47.26,3.39-8.78-.44-15.39-.44-26.25-.44-9.38,0-22.5.44-24.33.44-3.12,0-3.12-2.87-.26-3.14,4.16-.25,14.07-.78,14.69-16.68.69-16.42.25-85.61,0-93.16C17.12,11,12.69,3.9,1.22,3.9-.61,3.9-.34.78,1.74.78h49c1.83,0,2.88,3.05-.26,3.31s-15,.61-15.37,16.51-.44,40.58-.44,41.63c0,1.31.51,2.6,2.34,1.31C42.67,59.71,59.44,43.28,72,29.2A74,74,0,0,0,82.65,14.25a8.43,8.43,0,0,0,1-3.91M145.4,54.41V10.17c0-5.47,3.91-7,8.07-7.3,1.58,0,1.83-2.09-.25-2.09H127.15c-1.83,0-2.09,2-.27,2.09,3.92.43,8.61,2.34,8.61,7.3V54.41c0,5-1.82,8.08-7.56,8.08-2.26,0-1.74,1.91,0,1.91h25.54c1.31,0,1.67-1.91-.51-1.91-5.48,0-7.56-3.65-7.56-8.08M179,92.65a1,1,0,0,0,1-.78l4.18-13.3c.26-.79-.09-1.31-.78-1.31a1.22,1.22,0,0,0-.87.35,4.52,4.52,0,0,1-2.53,1.56,2,2,0,0,1-1.21-.6c-3.74-4.61-9.73-5.3-12.6-5.3-13.3,0-24.77,8.69-31.55,19.38a37.19,37.19,0,0,0-6.18,20.16c0,11,7.57,17.12,17.48,17.12,4.43,0,7.82-.52,13.81-3.05a13.45,13.45,0,0,1,3.65-1.12c1.48,0,1.56,2.17,1.74,4.17a1,1,0,0,0,1,1,1.1,1.1,0,0,0,1-.77l5.57-15.91c.42-1.3-.09-1.81-.62-1.81-.78,0-1.21.34-1.83,1.38-2.52,3.92-4.25,6.44-13,10.69a28,28,0,0,1-11.29,2.78c-7.39,0-10.27-5.65-10.27-12.78,0-9.38,4.44-19.2,11.22-27.37,4.35-5.39,11-11.47,18.69-11.47,7.38,0,12.85,5.48,12.07,15.64A1.14,1.14,0,0,0,179,92.65M162.18.78c-1.83,0-1.83,1.83-.79,2.09,2,.43,6.17.78,6.17,6.26.08,12.94.08,29.89-.44,43.72-.08,4.94-1.56,9.11-5.81,9.64-1.56.09-1.56,1.91-.53,1.91h18.77a1,1,0,0,0,.09-1.91c-2.87-.53-7.57-.53-7.91-9.64C171.29,44,171,10.43,171,10.43l47.09,52.4H222s0-49,.27-52.74c.26-4.35,1.74-6.7,6.43-7,2.35-.18,1.9-2.27.34-2.27H210c-2.27,0-1.74,2.09-.69,2.09,2.07.27,8.6,1,8.86,7.3.25,9.12.69,37.55.69,37.55L177,.78ZM204,87.43c8.35,0,9.91,7.31,9.91,14.08,0,10.78-9.91,28-21.88,28-7.56,0-10.43-6.08-10.43-12.34,0-15,10.69-29.72,22.4-29.72m1.74,2.43c-8.24,0-20.06,19.56-20.06,31.47,0,3.12,1.39,5.46,4.7,5.46,8.08,0,20.14-20,20.14-30.49,0-3.14-.86-6.44-4.78-6.44m30.95-13a3.26,3.26,0,0,1-.35,1.3c-7,15.3-14,30.51-20.78,45.81a10.44,10.44,0,0,0-1,3.38,2.35,2.35,0,0,0,2.34,2.43,5.72,5.72,0,0,0,2.17-.52c3.82-1.55,7.83-5.73,10.17-9.3a.71.71,0,0,0-1.05-1c-.94.86-3.65,4.52-6.52,6.08-.51.26-1,.26-.69-.78L242.72,76a5.24,5.24,0,0,0,.53-1.9c0-.62-.44-.87-1.06-.87-1,0-2.25.25-3.81.43-1.31.09-3.57.26-5.57.44A.85.85,0,0,0,232,75c0,.51.44.78,1,.78a14.3,14.3,0,0,1,3.21.25.74.74,0,0,1,.53.79m57.53-33.29c0-5.3,3.91-5.82,7.3-6.08a1.14,1.14,0,1,0-.26-2.27H275c-1.82,0-1.82,2.36,0,2.53,5.22.34,9.39,1.3,9.39,6.34v9.48A5.52,5.52,0,0,1,282.18,58c-4.6,3.82-10.43,4.08-13.82,4.08-16.69,0-24.16-14.42-24.16-28.76,0-11.66,5.9-30,25.2-30C286.7,3.3,293,14.52,295,18.77c.7,1.31,2.34,1.05,2.34,0V5c0-1.3-1.9-1.56-2.34,0a3,3,0,0,1-2.7,2.62,5.89,5.89,0,0,1-2.77-1.14C284.35,3.14,279.39.52,269.49.52c-16,0-35.72,8-35.72,32.33,0,24.5,18.51,32.07,34.68,32.07a39,39,0,0,0,25.81-9.13ZM256.11,76.83a3.15,3.15,0,0,1-.36,1.3c-7,15.3-14,30.51-20.76,45.81a10.21,10.21,0,0,0-1,3.38,2.35,2.35,0,0,0,2.34,2.43,5.82,5.82,0,0,0,2.18-.52c3.82-1.55,7.82-5.73,10.16-9.3a.71.71,0,0,0-1-1c-1,.86-3.65,4.52-6.51,6.08-.51.26-1,.26-.69-.78L262.1,76a5.24,5.24,0,0,0,.53-1.9c0-.62-.44-.87-1.05-.87-1,0-2.26.25-3.82.43-1.31.09-3.57.26-5.56.44a.84.84,0,0,0-.79.87c0,.51.43.78,1,.78a14.39,14.39,0,0,1,3.22.25.74.74,0,0,1,.52.79m25.38,43.46c-3.65,4.77-9.39,9.2-16.52,9.2-5.48,0-8.77-3.9-8.77-8.94,0-15.56,17.21-32,28.68-32,3.9,0,6.77,1.49,6.77,5.66,0,6.08-5.3,9.39-14.86,12.25-2.69.79-8.61,2.09-11.47,2.69a21,21,0,0,0-3,9.56c0,4.45,2.18,7.05,6.26,7.05,4.7,0,9.13-3.66,11.56-6.52.78-.78,2,.26,1.31,1.05m-5.22-16.17c5.38-1.74,10.35-4.61,10.35-9.38,0-2.53-1.23-3.57-3.66-3.57-3,0-6,2.26-7.81,4.08a47.25,47.25,0,0,0-8.53,11,49.44,49.44,0,0,0,9.65-2.18M330,92.21c1,0,2-.52,2-2.35,0-1.56-1.48-2.09-2.87-2.09a10.31,10.31,0,0,0-5.65,1.83c-.52.44-1.83,1.05-2.61.53-1.65-1.13-3.12-1.91-7-1.91s-9.64,2.34-13.29,7.29c-2.61,3.66-3.14,6.27-3.14,8.86a9.28,9.28,0,0,0,1.84,5.57,1.25,1.25,0,0,1,.25.7c0,.6-.78,1-2.09,1.39-2.34.78-6.24,3-6.24,7,0,2.61,2.07,5.13,4.43,6.7a46.06,46.06,0,0,0-8.61,3.39c-3,1.65-6.26,4.17-6.26,7.82,0,4.17,3.56,10.95,18.26,10.95,8.6,0,14-3.13,16.07-5.47a7.89,7.89,0,0,0,1.82-5.22c0-4.69-5.2-9.13-10.94-12.25-3.66-2.09-9-4.62-9-8.35a2.79,2.79,0,0,1,1.3-2.6,5.21,5.21,0,0,1,3-.78c1.65,0,3.74.51,5.21.51,4.7,0,11-1.56,15-9.91a16.83,16.83,0,0,0,1.47-6.68c0-2.61-.44-3.23-.44-4.43,0-1,1-1.65,3-1.65,2.87,0,2.87,1.12,4.52,1.12M299.65,145.4c-9.65,0-12.52-5.57-12.52-8.34,0-2.61,1.05-4.26,3.65-6.1a32.34,32.34,0,0,1,6.6-3.37,34.56,34.56,0,0,1,7.05,4.17c5.22,3.63,6.25,5.73,6.25,7.55,0,4.95-7.38,6.09-11,6.09m19-51.63a19.64,19.64,0,0,1-3.14,9.57c-4.08,6.6-7.3,7.9-10.07,7.9-2.36,0-3.4-1.91-3.4-4.69A16.77,16.77,0,0,1,305,98.12c2.78-4.43,6.7-8.08,10.16-8.08,2.35,0,3.58,1.13,3.58,3.73M308.25,10.69a4.68,4.68,0,0,1-4.86-5c0-3.91,3.12-5.13,5.47-5.13,3.3,0,6,2.35,6,6.43,0,4.52-3.39,9.91-9.38,9.91a.8.8,0,0,1-.88-.78.76.76,0,0,1,.61-.78c4.08-.78,5.64-3.39,5.73-5.13a6,6,0,0,1-2.69.52m48.07,2.87c.43,0,.95-.26.78-.87L355.44,1.05c-.18-.79-.52-1-1-1a1,1,0,0,0-.85.69,3,3,0,0,1-2.8,1.92c-2.59,0-5-1.92-11.2-1.92-8.09,0-18.78,3.48-18.78,15.21s9.39,15.57,17.48,18.51c8.51,3.14,15.3,5.48,15.3,14.34,0,9.91-7,13.12-13.56,13.12-7.31,0-15.92-3.47-18.95-15-.27-1-.61-1.21-1.31-1.21s-1.12.43-1.12,1.47V62c0,.87.51,1.31,1,1.31a1.32,1.32,0,0,0,1-.69,3.25,3.25,0,0,1,3-1.66c3.3,0,7.22,4,16.69,4,8.34,0,22.42-2.61,22.42-19,0-6.51-2.69-14.85-18.51-19.29C333.1,23.47,329.55,18.77,329.55,13c0-4.95,2.95-9.73,11-9.73,4,0,10.52,1.13,14.86,9.64.26.53.53.62.88.62m-4.53,106.73c-3.65,4.77-9.38,9.2-16.6,9.2-5.47,0-8.68-3.9-8.68-8.94,0-15.56,17.19-32,28.68-32,3.9,0,6.77,1.49,6.77,5.66,0,6.08-5.39,9.39-14.86,12.25-2.78.79-8.61,2.09-11.47,2.69a21,21,0,0,0-3,9.56c0,4.45,2.25,7.05,6.25,7.05,4.7,0,9.13-3.66,11.65-6.52a.84.84,0,0,1,1.3,1.05m-5.21-16.17c5.3-1.74,10.26-4.61,10.26-9.38,0-2.53-1.14-3.57-3.65-3.57-3,0-6,2.26-7.82,4.08a47,47,0,0,0-8.44,11,50.89,50.89,0,0,0,9.65-2.18"/><path class="cls-1" d="M5.73,150.59H28.15c1.14,0,1.49,1.82.09,1.82-2.16,0-6.6,1-6.6,5.74v38.93c0,4.44,2.17,6,11.81,6,9.31,0,18.09-1.14,22.43-13.49.35-1,2-.94,1.74.62l-2.87,15.37H6.52a1,1,0,1,1-.26-2c3.12,0,7-1.48,7-7.12V159.19c0-4.78-2.79-6.78-7.48-6.78a.91.91,0,1,1,0-1.82m350.93,74.48H6.52v3.3H356.66Zm0,10.6H6.52v7.57H356.66ZM86.56,206c16.07,0,27.64-11.21,27.64-28.43,0-15.12-11.22-27.37-27.64-27.37A27.06,27.06,0,0,0,59.1,177.61C59.1,193.78,70,206,86.56,206M68,177.61c0-14.07,6.52-24.94,18.52-24.94,10.69,0,18.77,10.34,18.77,24.94,0,18-7.29,25.9-18.77,25.9-11.21,0-18.52-10.77-18.52-25.9m50.07-27.11a.92.92,0,0,0,.08,1.83c1.57,0,4.88.43,4.88,5.21l-.27,38.58c0,4.18-1.48,7.66-5.39,7.66-1.29,0-1.29,1.74-.26,1.74h16.08c1,0,1-1.74-.18-1.74-2.34,0-6.42-1.05-6.51-7.66l-.35-39.28s41.2,48.41,41.45,48.68h2.78l.27-46.42c0-4.6,2-7,6.95-7a.79.79,0,0,0,0-1.57h-18a.79.79,0,0,0,0,1.57c1.83,0,7.4.34,7.48,6.34l.44,33.81L132.18,150.5Zm64.74-.26c-1.83,0-1.47,2.09-.43,2.09,2.09,0,5.57,1,5.57,5.21v39.2c0,4.17-1,6.77-5.92,6.77-1.21,0-1.21,2-.09,2h26.15c11.47,0,30.5-5.48,30.5-28.16,0-23-15.64-27.12-30.76-27.12Zm13.56,7.66c0-5,2.86-5.23,9.63-5.23,11.74,0,23.56,5.83,23.56,24.43,0,18.08-9.91,25.81-23,25.81h-2.78c-3.46,0-7.38-.69-7.38-7.57ZM273.48,206c16.08,0,27.64-11.21,27.64-28.43,0-15.12-11.21-27.37-27.64-27.37A27.06,27.06,0,0,0,246,177.61c0,16.17,10.87,28.43,27.46,28.43M255,177.61c0-14.07,6.51-24.94,18.49-24.94,10.69,0,18.78,10.34,18.78,24.94,0,18-7.31,25.9-18.78,25.9-11.2,0-18.49-10.77-18.49-25.9m49.69-27.11a.92.92,0,0,0,.09,1.83c1.56,0,4.88.43,4.88,5.21l-.27,38.58c0,4.18-1.47,7.66-5.39,7.66-1.31,0-1.31,1.74-.25,1.74h16.07c1,0,1-1.74-.18-1.74-2.34,0-6.42-1.05-6.51-7.66l-.35-39.28s41.2,48.41,41.46,48.68H357l.27-46.42c0-4.6,2-7,7-7a.79.79,0,0,0,0-1.57h-18a.79.79,0,0,0,0,1.57c1.84,0,7.39.34,7.48,6.34l.44,33.81L318.77,150.5Z"/></g></g></svg>