<svg xmlns="http://www.w3.org/2000/svg" viewBox="0 0 137.25 28.83"><defs><style>.cls-1{fill:#00aeef;}.cls-2{fill:#9d248f;}</style></defs><g id="Layer_2" data-name="Layer 2"><g id="Layer_1-2" data-name="Layer 1"><path class="cls-1" d="M122.83,28.83a14.42,14.42,0,1,1,14.42-14.42A14.44,14.44,0,0,1,122.83,28.83Zm0-26.84a12.43,12.43,0,1,0,12.43,12.42A12.43,12.43,0,0,0,122.83,2Z"/><path class="cls-1" d="M4.69,28H0V.73H8.54c4.27,0,9.14,1.26,9.14,8.19v.7c0,7-4.87,8.23-9.14,8.23H4.69Zm4-14.28c1.82,0,4.2-.66,4.2-4.27V9.1c0-3.61-2.38-4.28-4.2-4.28h-4v8.93Z"/><path class="cls-1" d="M36.82.73V4.82H25.27v7.25h9.8v4.06h-9.8v7.81H36.82V28H20.58V.73Z"/><path class="cls-1" d="M52.76.59,59.94,28h-5l-1.5-6.23h-7.7L44.18,28H39.11L46.28.59ZM46.67,17.71h5.7L49.54,5.94Z"/><path class="cls-1" d="M71.09,24.39h.32c3.18,0,4.41-2.13,4.41-5.56h4.72v.35c0,6.44-3.15,9.31-9.41,9.31-6.83,0-10-4-10-13.41v-1.4c0-9.45,3.15-13.41,10-13.41,6.26,0,9.41,2.87,9.41,9.53V11H75.82c0-4.34-1.09-6.62-4.41-6.62h-.32C67.21,4.37,66,7.52,66,13.68v1.4C66,21.24,67.17,24.39,71.09,24.39Z"/><path class="cls-1" d="M100.08.73V4.82H88.53v7.25h9.8v4.06h-9.8v7.81h11.55V28H83.84V.73Z"/><path class="cls-2" d="M135.26,14.41A12.43,12.43,0,1,1,122.83,2,12.42,12.42,0,0,1,135.26,14.41Z"/></g></g></svg>