<svg xmlns="http://www.w3.org/2000/svg" viewBox="0 0 213.91 85.14"><defs><style>.cls-1{fill:#00aeef;}.cls-2,.cls-3{fill:#9d248f;}.cls-2{stroke:#00aeef;stroke-miterlimit:10;stroke-width:3px;}</style></defs><g id="Layer_2" data-name="Layer 2"><g id="Layer_1-2" data-name="Layer 1"><path class="cls-1" d="M7,42.29h-7V1.73H12.74c6.35,0,13.57,1.87,13.57,12.16v1c0,10.35-7.22,12.22-13.57,12.22H7Zm6-21.22c2.71,0,6.24-1,6.24-6.34v-.58c0-5.35-3.53-6.34-6.24-6.34H7V21.07Z"/><path class="cls-1" d="M54.48,1.73V7.81H37.32V18.57H51.88v6H37.32V36.2H54.48v6.09H30.35V1.73Z"/><path class="cls-1" d="M77.92,1.52,88.58,42.29H81.1L78.86,33H67.42l-2.24,9.26H57.64L68.3,1.52ZM68.88,27h8.47L73.14,9.47Z"/><path class="cls-1" d="M104.86,36.88h.47c4.73,0,6.55-3.17,6.55-8.27h7v.52c0,9.57-4.68,13.83-14,13.83C94.78,43,90.1,37.09,90.1,23.05V21c0-14,4.68-19.92,14.82-19.92,9.3,0,14,4.26,14,14.14V17h-7c0-6.45-1.61-9.83-6.55-9.83h-.47c-5.77,0-7.64,4.68-7.64,13.84v2.08C97.22,32.2,99,36.88,104.86,36.88Z"/><path class="cls-1" d="M147.67,1.73V7.81H130.5V18.57h14.57v6H130.5V36.2h17.17v6.09H123.54V1.73Z"/><path class="cls-2" d="M203.92,21.74A20.24,20.24,0,1,1,183.68,1.5,20.25,20.25,0,0,1,203.92,21.74Z"/><path class="cls-3" d="M1.14,65H.28V55.64H2.87c1.33,0,2.86.5,2.86,2.66v.24c0,2.14-1.53,2.65-2.86,2.65H1.14Zm1.75-4.58a1.76,1.76,0,0,0,2-1.91v-.18a1.76,1.76,0,0,0-2-1.9H1.14v4Z"/><path class="cls-3" d="M10.93,64.1a2.7,2.7,0,0,1-2.24,1,1.67,1.67,0,0,1-1.83-1.74v-.12c0-1.38,1-1.77,2.07-1.93l1.92-.3v-.17c0-1.09-.35-1.65-1.48-1.65s-1.47.7-1.47,1.52H7.1v-.11c0-.95.42-2.12,2.29-2.12s2.3,1,2.3,2.36v2.33l.07,1.8h-.69Zm-.08-.72V61.64L9,61.94c-.81.15-1.3.54-1.3,1.26v.11a1.06,1.06,0,0,0,1.21,1.08A2.12,2.12,0,0,0,10.85,63.38Z"/><path class="cls-3" d="M16.8,58.63v.76h-2v3.73c0,1,.42,1.25,1.22,1.25a2.09,2.09,0,0,0,.69-.11V65a2.5,2.5,0,0,1-.89.13,1.67,1.67,0,0,1-1.86-1.89V59.39h-1v-.76h1V56.84h.84v1.79Z"/><path class="cls-3" d="M19.09,59.4a2.46,2.46,0,0,1,2-.9,1.84,1.84,0,0,1,1.93,2V65h-.84V60.66a1.24,1.24,0,0,0-1.37-1.4,2,2,0,0,0-1.76,1V65h-.84V55.4h.84Z"/><path class="cls-3" d="M26.76,65H25.65l-1.36-6.36h.83l1.11,5.49,1.47-5.49h1l1.48,5.49,1.1-5.49h.84L30.77,65H29.66l-1.45-5.42Z"/><path class="cls-3" d="M37.2,64.1a2.7,2.7,0,0,1-2.24,1,1.67,1.67,0,0,1-1.84-1.74v-.12c0-1.38,1.05-1.77,2.08-1.93l1.92-.3v-.17c0-1.09-.35-1.65-1.48-1.65s-1.47.7-1.47,1.52h-.81v-.11c0-.95.42-2.12,2.29-2.12s2.31,1,2.31,2.36v2.33L38,65h-.7Zm-.08-.72V61.64l-1.85.3c-.82.15-1.31.54-1.31,1.26v.11a1.06,1.06,0,0,0,1.21,1.08A2.13,2.13,0,0,0,37.12,63.38Z"/><path class="cls-3" d="M43.57,58.63h.9l-2.28,6.12-.9,2.64h-1l1-2.64L39,58.63h.9l1.81,5.2Z"/><path class="cls-3" d="M49.59,58.63h1.79v.76H49.59V65h-.84v-5.6h-1v-.76h1V57.16a1.68,1.68,0,0,1,1.86-1.9,2.36,2.36,0,0,1,.89.14v.73a2.07,2.07,0,0,0-.68-.11c-.81,0-1.23.24-1.23,1.25Z"/><path class="cls-3" d="M52.45,62v-.29c0-1.76.8-3.17,2.67-3.17s2.68,1.41,2.68,3.17V62c0,1.76-.81,3.16-2.68,3.16S52.45,63.72,52.45,62ZM57,62v-.29c0-1.45-.57-2.41-1.83-2.41s-1.82,1-1.82,2.41V62c0,1.45.56,2.41,1.82,2.41S57,63.41,57,62Z"/><path class="cls-3" d="M62.06,58.51v.81h-.17a1.88,1.88,0,0,0-1.69,1V65h-.84V60.43l-.07-1.8H60l.12.84a2,2,0,0,1,1.77-1Z"/><path class="cls-3" d="M71.48,55.64v.78H67.12v3.41h3.76v.77H67.12v3.61h4.36V65H66.26V55.64Z"/><path class="cls-3" d="M76.85,64.1a2.7,2.7,0,0,1-2.24,1,1.67,1.67,0,0,1-1.83-1.74v-.12c0-1.38,1-1.77,2.07-1.93l1.92-.3v-.17c0-1.09-.35-1.65-1.48-1.65s-1.47.7-1.47,1.52H73v-.11c0-.95.42-2.12,2.29-2.12s2.3,1,2.3,2.36v2.33l.07,1.8H77Zm-.08-.72V61.64l-1.85.3c-.81.15-1.3.54-1.3,1.26v.11a1.06,1.06,0,0,0,1.21,1.08A2.12,2.12,0,0,0,76.77,63.38Z"/><path class="cls-3" d="M82.72,58.63v.76h-2v3.73c0,1,.42,1.25,1.22,1.25a2.09,2.09,0,0,0,.69-.11V65a2.5,2.5,0,0,1-.89.13,1.67,1.67,0,0,1-1.86-1.89V59.39h-1v-.76h1V56.84h.84v1.79Z"/><path class="cls-3" d="M85.18,57.14H84.1V56.06h1.08Zm-1,1.49h.84V65h-.84Z"/><path class="cls-3" d="M90.87,65V60.66a1.25,1.25,0,0,0-1.38-1.4,1.94,1.94,0,0,0-1.75,1V65H86.9V60.43l-.07-1.8h.69l.12.9a2.42,2.42,0,0,1,2.14-1,1.84,1.84,0,0,1,1.93,2V65Z"/><path class="cls-3" d="M97.48,63.83a2.09,2.09,0,0,1-1.8.84c-1.73,0-2.44-1.33-2.44-3v-.27c0-1.59.71-3,2.44-3a2.08,2.08,0,0,1,1.89,1l.12-.86h.7l-.07,1.8v4.62a2.22,2.22,0,0,1-2.5,2.47,2.17,2.17,0,0,1-2.46-2.37V65h.81c0,1.2.45,1.8,1.64,1.8s1.67-.62,1.67-1.79Zm-1.62-4.57c-1.19,0-1.77.89-1.77,2.19v.27c0,1.33.58,2.19,1.77,2.19a1.9,1.9,0,0,0,1.62-1v-2.7A1.89,1.89,0,0,0,95.86,59.26Z"/><path class="cls-3" d="M106.75,59.37v-4h.84v7.79l.07,1.8H107l-.12-.85a2.09,2.09,0,0,1-1.89,1c-1.74,0-2.43-1.4-2.43-3.16v-.29c0-1.76.69-3.17,2.43-3.17A2.09,2.09,0,0,1,106.75,59.37Zm0,4V60.24a1.87,1.87,0,0,0-1.62-1c-1.2,0-1.76.93-1.76,2.41V62c0,1.47.56,2.41,1.76,2.41A1.88,1.88,0,0,0,106.75,63.38Z"/><path class="cls-3" d="M110.41,57.14h-1.08V56.06h1.08Zm-1,1.49h.84V65h-.84Z"/><path class="cls-3" d="M116,63.25c0-.86-.5-1.07-1.74-1.17-1.71-.15-2.21-.75-2.21-1.69v-.08c0-1.1.88-1.81,2.37-1.81,1.74,0,2.37.89,2.37,2.14v0h-.83c0-.91-.36-1.47-1.54-1.47-1,0-1.53.4-1.53,1.1s.32,1,1.7,1.13c1.59.13,2.27.59,2.27,1.75v.06c0,1.1-.87,1.87-2.44,1.87-1.8,0-2.45-1.05-2.45-2v-.05h.84c0,.69.35,1.36,1.61,1.36C115.41,64.41,116,64,116,63.25Z"/><path class="cls-3" d="M118.22,62v-.29c0-1.76.81-3.17,2.68-3.17s2.67,1.41,2.67,3.17V62c0,1.76-.8,3.16-2.67,3.16S118.22,63.72,118.22,62Zm4.5,0v-.29c0-1.45-.56-2.41-1.82-2.41s-1.82,1-1.82,2.41V62c0,1.45.56,2.41,1.82,2.41S122.72,63.41,122.72,62Z"/><path class="cls-3" d="M127.84,58.51v.81h-.17a1.87,1.87,0,0,0-1.69,1V65h-.84V60.43l-.07-1.8h.69l.12.84a2.06,2.06,0,0,1,1.78-1Z"/><path class="cls-3" d="M133.16,59.37v-4H134v7.79l.07,1.8h-.7l-.12-.85a2.09,2.09,0,0,1-1.89,1c-1.74,0-2.43-1.4-2.43-3.16v-.29c0-1.76.69-3.17,2.43-3.17A2.09,2.09,0,0,1,133.16,59.37Zm0,4V60.24a1.87,1.87,0,0,0-1.62-1c-1.2,0-1.76.93-1.76,2.41V62c0,1.47.56,2.41,1.76,2.41A1.88,1.88,0,0,0,133.16,63.38Z"/><path class="cls-3" d="M136.42,62.16c0,1.39.62,2.25,1.89,2.25s1.8-.77,1.8-1.46h.81v0c0,1-.82,2.12-2.61,2.12s-2.74-1.41-2.74-3.18v-.26c0-1.76.82-3.18,2.68-3.18s2.67,1.42,2.67,3.18v.48Zm0-.7h3.64c0-1.37-.61-2.25-1.82-2.25S136.45,60.09,136.42,61.46Z"/><path class="cls-3" d="M145.2,58.51v.81H145a1.88,1.88,0,0,0-1.69,1V65h-.84V60.43l-.07-1.8h.7l.12.84a2,2,0,0,1,1.77-1Z"/><path class="cls-3" d="M150.47,63.25c0-.86-.5-1.07-1.73-1.17-1.72-.15-2.21-.75-2.21-1.69v-.08c0-1.1.87-1.81,2.36-1.81,1.74,0,2.38.89,2.38,2.14v0h-.83c0-.91-.36-1.47-1.55-1.47-1,0-1.52.4-1.52,1.1s.31,1,1.69,1.13c1.59.13,2.28.59,2.28,1.75v.06c0,1.1-.88,1.87-2.45,1.87-1.8,0-2.45-1.05-2.45-2v-.05h.84c0,.69.35,1.36,1.61,1.36C149.92,64.41,150.47,64,150.47,63.25Z"/><path class="cls-3" d="M159.45,64.1a2.7,2.7,0,0,1-2.24,1,1.67,1.67,0,0,1-1.84-1.74v-.12c0-1.38,1-1.77,2.08-1.93l1.92-.3v-.17c0-1.09-.35-1.65-1.48-1.65s-1.47.7-1.47,1.52h-.81v-.11c0-.95.42-2.12,2.29-2.12s2.31,1,2.31,2.36v2.33l.07,1.8h-.7Zm-.08-.72V61.64l-1.85.3c-.82.15-1.31.54-1.31,1.26v.11a1.06,1.06,0,0,0,1.21,1.08A2.13,2.13,0,0,0,159.37,63.38Z"/><path class="cls-3" d="M166,65V60.66a1.25,1.25,0,0,0-1.38-1.4,2,2,0,0,0-1.75,1V65H162V60.43l-.07-1.8h.7l.12.9a2.4,2.4,0,0,1,2.13-1,1.84,1.84,0,0,1,1.93,2V65Z"/><path class="cls-3" d="M172.59,59.37v-4h.84v7.79l.07,1.8h-.71l-.12-.85a2.06,2.06,0,0,1-1.88,1c-1.74,0-2.44-1.4-2.44-3.16v-.29c0-1.76.7-3.17,2.44-3.17A2.1,2.1,0,0,1,172.59,59.37Zm0,4V60.24a1.9,1.9,0,0,0-1.62-1c-1.2,0-1.76.93-1.76,2.41V62c0,1.47.56,2.41,1.76,2.41A1.91,1.91,0,0,0,172.59,63.38Z"/><path class="cls-3" d="M181.31,55.54,184,65h-.93l-.68-2.4H179l-.68,2.4h-.93l2.7-9.45Zm-2.11,6.27h3l-1.49-5.32Z"/><path class="cls-3" d="M186,58.63V63a1.26,1.26,0,0,0,1.38,1.41,2,2,0,0,0,1.76-1V58.63H190v4.56l.07,1.8h-.69l-.14-.89a2.35,2.35,0,0,1-2.12,1,1.84,1.84,0,0,1-1.93-2V58.63Z"/><path class="cls-3" d="M195.27,58.63v.76h-2v3.73c0,1,.42,1.25,1.23,1.25a2,2,0,0,0,.68-.11V65a2.4,2.4,0,0,1-.89.13,1.67,1.67,0,0,1-1.86-1.89V59.39h-1v-.76h1V56.84h.84v1.79Z"/><path class="cls-3" d="M197.73,57.14h-1.08V56.06h1.08Zm-1,1.49h.84V65h-.84Z"/><path class="cls-3" d="M203.29,63.25c0-.86-.51-1.07-1.74-1.17-1.72-.15-2.21-.75-2.21-1.69v-.08c0-1.1.88-1.81,2.36-1.81,1.74,0,2.38.89,2.38,2.14v0h-.83c0-.91-.36-1.47-1.55-1.47-1,0-1.52.4-1.52,1.1s.31,1,1.69,1.13c1.6.13,2.28.59,2.28,1.75v.06c0,1.1-.88,1.87-2.45,1.87-1.8,0-2.44-1.05-2.44-2v-.05h.84c0,.69.34,1.36,1.6,1.36C202.73,64.41,203.29,64,203.29,63.25Z"/><path class="cls-3" d="M213.07,65V60.51c0-1-.5-1.25-1.22-1.25a1.78,1.78,0,0,0-1.58,1V65h-.84V60.51c0-1-.51-1.25-1.23-1.25a1.8,1.8,0,0,0-1.58,1V65h-.84V60.43l-.07-1.8h.69l.12.87a2.23,2.23,0,0,1,2-1,1.56,1.56,0,0,1,1.64,1.06,2.2,2.2,0,0,1,2-1.06,1.66,1.66,0,0,1,1.77,1.89V65Z"/><path class="cls-3" d="M4.23,77.12v-4h.84V81l.08,1.79H4.44l-.12-.85a2.09,2.09,0,0,1-1.89,1C.7,82.88,0,81.47,0,79.71v-.29c0-1.76.7-3.16,2.43-3.16A2.08,2.08,0,0,1,4.23,77.12Zm0,4V78a1.89,1.89,0,0,0-1.62-1C1.42,77,.85,78,.85,79.42v.29c0,1.47.57,2.41,1.76,2.41A1.87,1.87,0,0,0,4.23,81.14Z"/><path class="cls-3" d="M7.49,79.91c0,1.4.62,2.26,1.89,2.26s1.8-.78,1.8-1.47H12v0c0,1-.82,2.13-2.61,2.13S6.64,81.46,6.64,79.7v-.27c0-1.76.82-3.17,2.68-3.17S12,77.67,12,79.43v.48Zm0-.69h3.64c0-1.38-.61-2.26-1.82-2.26S7.52,77.84,7.49,79.22Z"/><path class="cls-3" d="M12.88,76.39h.9L15.65,82l1.89-5.56h.9l-2.23,6.35H15.1Z"/><path class="cls-3" d="M20.17,79.91c0,1.4.63,2.26,1.9,2.26s1.8-.78,1.8-1.47h.8v0a2.31,2.31,0,0,1-2.6,2.13c-1.92,0-2.75-1.42-2.75-3.18v-.27c0-1.76.83-3.17,2.69-3.17s2.66,1.41,2.66,3.17v.48Zm0-.69h3.65C23.77,77.84,23.21,77,22,77S20.21,77.84,20.17,79.22Z"/><path class="cls-3" d="M26.33,73.15h.84v9.59h-.84Z"/><path class="cls-3" d="M28.8,79.71v-.29c0-1.76.8-3.16,2.67-3.16s2.67,1.4,2.67,3.16v.29c0,1.76-.8,3.17-2.67,3.17S28.8,81.47,28.8,79.71Zm4.49,0v-.29c0-1.45-.56-2.41-1.82-2.41s-1.82,1-1.82,2.41v.29c0,1.45.56,2.41,1.82,2.41S33.29,81.16,33.29,79.71Z"/><path class="cls-3" d="M36.55,82v3.12h-.84v-7l-.07-1.8h.69l.12.86a2.11,2.11,0,0,1,1.9-1c1.74,0,2.43,1.4,2.43,3.16v.29c0,1.76-.69,3.17-2.43,3.17A2.07,2.07,0,0,1,36.55,82Zm0-.88a1.84,1.84,0,0,0,1.61,1c1.19,0,1.76-.94,1.76-2.41v-.29c0-1.47-.57-2.41-1.76-2.41a1.86,1.86,0,0,0-1.61,1Z"/><path class="cls-3" d="M43,79.91c0,1.4.62,2.26,1.89,2.26s1.8-.78,1.8-1.47h.81v0c0,1-.82,2.13-2.61,2.13s-2.74-1.42-2.74-3.18v-.27c0-1.76.83-3.17,2.69-3.17s2.66,1.41,2.66,3.17v.48Zm0-.69h3.65c0-1.38-.62-2.26-1.83-2.26S43.05,77.84,43,79.22Z"/><path class="cls-3" d="M53.15,77.12v-4H54V81l.08,1.79h-.71l-.12-.85a2.09,2.09,0,0,1-1.88,1c-1.74,0-2.44-1.41-2.44-3.17v-.29c0-1.76.7-3.16,2.44-3.16A2.08,2.08,0,0,1,53.15,77.12Zm0,4V78a1.89,1.89,0,0,0-1.61-1c-1.2,0-1.77.94-1.77,2.41v.29c0,1.47.57,2.41,1.77,2.41A1.87,1.87,0,0,0,53.15,81.14Z"/><path class="cls-3" d="M59.82,76.39H61.6v.75H59.82v5.6H59v-5.6H58v-.75h1V74.91A1.67,1.67,0,0,1,60.83,73a2.4,2.4,0,0,1,.89.13v.73a2,2,0,0,0-.68-.11c-.8,0-1.22.24-1.22,1.25Z"/><path class="cls-3" d="M65.8,76.27v.8h-.17a1.87,1.87,0,0,0-1.69,1v4.71H63.1V78.19L63,76.39h.69l.12.84a2.06,2.06,0,0,1,1.78-1Z"/><path class="cls-3" d="M66.84,79.71v-.29c0-1.76.81-3.16,2.68-3.16s2.67,1.4,2.67,3.16v.29c0,1.76-.8,3.17-2.67,3.17S66.84,81.47,66.84,79.71Zm4.5,0v-.29c0-1.45-.56-2.41-1.82-2.41s-1.83,1-1.83,2.41v.29c0,1.45.57,2.41,1.83,2.41S71.34,81.16,71.34,79.71Z"/><path class="cls-3" d="M81.05,82.74V78.26c0-1-.51-1.25-1.23-1.25a1.8,1.8,0,0,0-1.58,1v4.77H77.4V78.26c0-1-.5-1.25-1.22-1.25a1.81,1.81,0,0,0-1.59,1v4.77h-.83V78.19l-.08-1.8h.7l.12.86a2.21,2.21,0,0,1,2-1,1.58,1.58,0,0,1,1.64,1,2.18,2.18,0,0,1,2-1,1.66,1.66,0,0,1,1.78,1.88v4.6Z"/><path class="cls-3" d="M89.28,82.1h.09c1.4,0,2-.86,2-2.4h.88v.12c0,2-1,3.06-2.95,3.06-2.14,0-3.17-1.34-3.17-4.57v-.48c0-3.24,1-4.57,3.17-4.57,2,0,2.95,1.09,2.95,3.2v.34h-.88c0-1.94-.59-2.76-2-2.76h-.09C87.72,74,87,75.16,87,77.83v.48C87,81,87.71,82.1,89.28,82.1Z"/><path class="cls-3" d="M93.87,73.15h.84v9.59h-.84Z"/><path class="cls-3" d="M97.55,74.89H96.47V73.81h1.08Zm-1,1.5h.84v6.35h-.84Z"/><path class="cls-3" d="M103.24,82.74V78.41a1.25,1.25,0,0,0-1.38-1.4,2,2,0,0,0-1.75,1v4.75h-.84V78.19l-.07-1.8h.7l.12.9a2.38,2.38,0,0,1,2.13-1,1.84,1.84,0,0,1,1.93,2v4.45Z"/><path class="cls-3" d="M106.84,74.89h-1.08V73.81h1.08Zm-1,1.5h.84v6.35h-.84Z"/><path class="cls-3" d="M111,82.12a1.46,1.46,0,0,0,1.62-1.58h.8v.19A2.16,2.16,0,0,1,111,82.88c-1.86,0-2.65-1.41-2.65-3.17v-.29c0-1.76.79-3.16,2.65-3.16a2.19,2.19,0,0,1,2.43,2.21v.24h-.8A1.5,1.5,0,0,0,111,77c-1.26,0-1.81,1-1.81,2.41v.29C109.17,81.16,109.72,82.12,111,82.12Z"/><path class="cls-3" d="M118.84,81.86a2.7,2.7,0,0,1-2.24,1,1.68,1.68,0,0,1-1.84-1.74V81c0-1.38,1-1.78,2.08-1.93l1.92-.3v-.17c0-1.09-.35-1.66-1.48-1.66s-1.47.7-1.47,1.53H115v-.11c0-1,.42-2.12,2.29-2.12s2.31,1,2.31,2.36V81l.07,1.79H119Zm-.08-.72V79.4l-1.85.3c-.82.14-1.31.54-1.31,1.26v.1a1.06,1.06,0,0,0,1.21,1.08A2.14,2.14,0,0,0,118.76,81.14Z"/><path class="cls-3" d="M121.42,73.15h.84v9.59h-.84Z"/><path class="cls-3" d="M132.05,73.39v.78H127.7v3.42h3.75v.76H127.7V82h4.35v.78h-5.22V73.39Z"/><path class="cls-3" d="M134.27,76.39,135.9,79l1.64-2.6h1l-2,3.14,2,3.21h-1l-1.64-2.67-1.63,2.67h-1l2-3.21-2-3.14Z"/><path class="cls-3" d="M140.74,82v3.12h-.84v-7l-.07-1.8h.69l.12.86a2.11,2.11,0,0,1,1.9-1c1.74,0,2.43,1.4,2.43,3.16v.29c0,1.76-.69,3.17-2.43,3.17A2.07,2.07,0,0,1,140.74,82Zm0-.88a1.84,1.84,0,0,0,1.61,1c1.19,0,1.76-.94,1.76-2.41v-.29c0-1.47-.57-2.41-1.76-2.41a1.86,1.86,0,0,0-1.61,1Z"/><path class="cls-3" d="M147.2,79.91c0,1.4.62,2.26,1.9,2.26s1.8-.78,1.8-1.47h.8v0a2.31,2.31,0,0,1-2.6,2.13c-1.92,0-2.75-1.42-2.75-3.18v-.27c0-1.76.83-3.17,2.69-3.17s2.66,1.41,2.66,3.17v.48Zm0-.69h3.65c0-1.38-.61-2.26-1.83-2.26S147.24,77.84,147.2,79.22Z"/><path class="cls-3" d="M156,76.27v.8h-.16a1.9,1.9,0,0,0-1.7,1v4.71h-.84V78.19l-.07-1.8h.7l.12.84a2,2,0,0,1,1.77-1Z"/><path class="cls-3" d="M158.42,74.89h-1.08V73.81h1.08Zm-1,1.5h.84v6.35h-.84Z"/><path class="cls-3" d="M160.75,79.91c0,1.4.62,2.26,1.89,2.26s1.8-.78,1.8-1.47h.8v0c0,1-.81,2.13-2.6,2.13s-2.74-1.42-2.74-3.18v-.27c0-1.76.82-3.17,2.68-3.17s2.66,1.41,2.66,3.17v.48Zm0-.69h3.64c0-1.38-.61-2.26-1.82-2.26S160.78,77.84,160.75,79.22Z"/><path class="cls-3" d="M170.8,82.74V78.41a1.25,1.25,0,0,0-1.38-1.4,2,2,0,0,0-1.75,1v4.75h-.84V78.19l-.07-1.8h.7l.12.9a2.38,2.38,0,0,1,2.13-1,1.84,1.84,0,0,1,1.93,2v4.45Z"/><path class="cls-3" d="M175.86,82.12a1.47,1.47,0,0,0,1.62-1.58h.8v.19a2.16,2.16,0,0,1-2.43,2.15c-1.86,0-2.65-1.41-2.65-3.17v-.29c0-1.76.79-3.16,2.65-3.16a2.19,2.19,0,0,1,2.43,2.21v.24h-.8a1.5,1.5,0,0,0-1.62-1.7c-1.26,0-1.81,1-1.81,2.41v.29C174.05,81.16,174.6,82.12,175.86,82.12Z"/><path class="cls-3" d="M180.5,79.91c0,1.4.63,2.26,1.9,2.26s1.8-.78,1.8-1.47h.8v0a2.31,2.31,0,0,1-2.6,2.13c-1.92,0-2.75-1.42-2.75-3.18v-.27c0-1.76.83-3.17,2.69-3.17S185,77.67,185,79.43v.48Zm0-.69h3.65c-.05-1.38-.61-2.26-1.82-2.26S180.54,77.84,180.5,79.22Z"/></g></g></svg>